HIERARCHY
ROOT Hips
{
	OFFSET 0.000000 35.082581 0.000000
	CHANNELS 6 Xposition Yposition Zposition Xrotation Yrotation Zrotation 
	JOINT Spine
	{
		OFFSET 0.000000 6.876099 0.125700
		CHANNELS 3 Xrotation Yrotation Zrotation
		JOINT Spine1
		{
			OFFSET 0.000000 5.730043 0.104720
			CHANNELS 3 Xrotation Yrotation Zrotation
			JOINT Spine1_split
			{
				OFFSET 0.000000 5.730043 0.104720
				CHANNELS 3 Xrotation Yrotation Zrotation
				JOINT Spine2
				{
					OFFSET 0.000000 5.730043 0.104720
					CHANNELS 3 Xrotation Yrotation Zrotation
					JOINT Neck
					{
						OFFSET 0.000000 10.314075 0.188496
						CHANNELS 3 Xrotation Yrotation Zrotation
						JOINT Head
						{
							OFFSET 0.000000 7.643700 -2.377400
							CHANNELS 3 Xrotation Yrotation Zrotation
							JOINT HeadTop_End
							{
								OFFSET 0.000000 43.788605 -13.619600
								CHANNELS 3 Xrotation Yrotation Zrotation
								End Site
								{
									OFFSET 0.000000 0.000000 0.000000
								}
							}
						}
					}
					JOINT LeftShoulder
					{
						OFFSET 2.196100 4.412489 0.087492
						CHANNELS 3 Xrotation Yrotation Zrotation
						JOINT LeftShoulder_split
						{
							OFFSET 2.196100 4.412489 0.087492
							CHANNELS 3 Xrotation Yrotation Zrotation
							JOINT LeftArm
							{
								OFFSET 8.771219 -2.981674 -0.026999
								CHANNELS 3 Xrotation Yrotation Zrotation
								JOINT LeftForeArm
								{
									OFFSET 8.512804 0.000000 -0.000000
									CHANNELS 3 Xrotation Yrotation Zrotation
									JOINT LeftHand
									{
										OFFSET 18.484802 0.000000 -0.000000
										CHANNELS 3 Xrotation Yrotation Zrotation
										JOINT LeftHandThumb1
										{
											OFFSET 2.499420 -1.158070 2.653252
											CHANNELS 3 Xrotation Yrotation Zrotation
											JOINT LeftHandThumb2
											{
												OFFSET 2.370079 -1.368366 1.368366
												CHANNELS 3 Xrotation Yrotation Zrotation
												JOINT LeftHandThumb3
												{
													OFFSET 2.676727 -1.545410 1.545409
													CHANNELS 3 Xrotation Yrotation Zrotation
													JOINT LeftHandThumb4
													{
														OFFSET 1.692226 -0.977005 0.977007
														CHANNELS 3 Xrotation Yrotation Zrotation
														End Site
														{
															OFFSET 0.000000 0.000000 0.000000
														}
													}
												}
											}
										}
										JOINT LeftHandIndex1
										{
											OFFSET 7.924831 -0.457527 2.345128
											CHANNELS 3 Xrotation Yrotation Zrotation
											JOINT LeftHandIndex2
											{
												OFFSET 3.643303 0.000000 0.000000
												CHANNELS 3 Xrotation Yrotation Zrotation
												JOINT LeftHandIndex3
												{
													OFFSET 3.810799 0.000000 0.000000
													CHANNELS 3 Xrotation Yrotation Zrotation
													JOINT LeftHandIndex4
													{
														OFFSET 2.403702 0.000000 0.000000
														CHANNELS 3 Xrotation Yrotation Zrotation
														End Site
														{
															OFFSET 0.000000 0.000000 0.000000
														}
													}
												}
											}
										}
										JOINT LeftHandMiddle1
										{
											OFFSET 8.563995 0.000000 -0.000000
											CHANNELS 3 Xrotation Yrotation Zrotation
											JOINT LeftHandMiddle2
											{
												OFFSET 3.861618 0.000000 0.000000
												CHANNELS 3 Xrotation Yrotation Zrotation
												JOINT LeftHandMiddle3
												{
													OFFSET 3.701603 0.000000 0.000000
													CHANNELS 3 Xrotation Yrotation Zrotation
													JOINT LeftHandMiddle4
													{
														OFFSET 2.322544 0.000000 0.000000
														CHANNELS 3 Xrotation Yrotation Zrotation
														End Site
														{
															OFFSET 0.000000 0.000000 0.000000
														}
													}
												}
											}
										}
										JOINT LeftHandRing1
										{
											OFFSET 8.426460 -0.424637 -3.286992
											CHANNELS 3 Xrotation Yrotation Zrotation
											JOINT LeftHandRing2
											{
												OFFSET 3.126408 0.000000 0.000000
												CHANNELS 3 Xrotation Yrotation Zrotation
												JOINT LeftHandRing3
												{
													OFFSET 3.085026 0.000000 0.000000
													CHANNELS 3 Xrotation Yrotation Zrotation
													JOINT LeftHandRing4
													{
														OFFSET 1.644005 0.000000 0.000000
														CHANNELS 3 Xrotation Yrotation Zrotation
														End Site
														{
															OFFSET 0.000000 0.000000 0.000000
														}
													}
												}
											}
										}
									}
								}
							}
						}
					}
					JOINT RightShoulder
					{
						OFFSET -2.196100 4.412496 0.070690
						CHANNELS 3 Xrotation Yrotation Zrotation
						JOINT RightShoulder_split
						{
							OFFSET -2.196100 4.412496 0.070690
							CHANNELS 3 Xrotation Yrotation Zrotation
							JOINT RightArm
							{
								OFFSET -8.771282 -2.981682 -0.094208
								CHANNELS 3 Xrotation Yrotation Zrotation
								JOINT RightForeArm
								{
									OFFSET -8.494598 0.000000 0.000000
									CHANNELS 3 Xrotation Yrotation Zrotation
									JOINT RightHand
									{
										OFFSET -18.483803 0.000000 0.000001
										CHANNELS 3 Xrotation Yrotation Zrotation
										JOINT RightHandThumb1
										{
											OFFSET -2.527351 -1.008072 2.575253
											CHANNELS 3 Xrotation Yrotation Zrotation
											JOINT RightHandThumb2
											{
												OFFSET -2.321518 -1.340328 1.340329
												CHANNELS 3 Xrotation Yrotation Zrotation
												JOINT RightHandThumb3
												{
													OFFSET -2.657753 -1.534454 1.534455
													CHANNELS 3 Xrotation Yrotation Zrotation
													JOINT RightHandThumb4
													{
														OFFSET -1.807510 -1.043568 1.043567
														CHANNELS 3 Xrotation Yrotation Zrotation
														End Site
														{
															OFFSET 0.000000 0.000000 0.000000
														}
													}
												}
											}
										}
										JOINT RightHandIndex1
										{
											OFFSET -8.811420 0.015533 2.887987
											CHANNELS 3 Xrotation Yrotation Zrotation
											JOINT RightHandIndex2
											{
												OFFSET -3.537502 0.000000 0.000000
												CHANNELS 3 Xrotation Yrotation Zrotation
												JOINT RightHandIndex3
												{
													OFFSET -3.356201 0.000000 0.000000
													CHANNELS 3 Xrotation Yrotation Zrotation
													JOINT RightHandIndex4
													{
														OFFSET -1.933098 0.000000 0.000000
														CHANNELS 3 Xrotation Yrotation Zrotation
														End Site
														{
															OFFSET 0.000000 0.000000 0.000000
														}
													}
												}
											}
										}
										JOINT RightHandMiddle1
										{
											OFFSET -8.178135 0.000000 0.000000
											CHANNELS 3 Xrotation Yrotation Zrotation
											JOINT RightHandMiddle2
											{
												OFFSET -3.901302 0.000000 0.000000
												CHANNELS 3 Xrotation Yrotation Zrotation
												JOINT RightHandMiddle3
												{
													OFFSET -3.909599 0.000000 0.000000
													CHANNELS 3 Xrotation Yrotation Zrotation
													JOINT RightHandMiddle4
													{
														OFFSET -2.376003 0.000000 0.000000
														CHANNELS 3 Xrotation Yrotation Zrotation
														End Site
														{
															OFFSET 0.000000 0.000000 0.000000
														}
													}
												}
											}
										}
										JOINT RightHandRing1
										{
											OFFSET -7.559013 0.014137 -2.865403
											CHANNELS 3 Xrotation Yrotation Zrotation
											JOINT RightHandRing2
											{
												OFFSET -3.449306 0.000000 0.000000
												CHANNELS 3 Xrotation Yrotation Zrotation
												JOINT RightHandRing3
												{
													OFFSET -3.362106 0.000000 0.000000
													CHANNELS 3 Xrotation Yrotation Zrotation
													JOINT RightHandRing4
													{
														OFFSET -2.076401 0.000000 0.000000
														CHANNELS 3 Xrotation Yrotation Zrotation
														End Site
														{
															OFFSET 0.000000 0.000000 0.000000
														}
													}
												}
											}
										}
									}
								}
							}
						}
					}
				}
			}
		}
	}
	JOINT LeftUpLeg
	{
		OFFSET 10.205400 -3.823500 0.155100
		CHANNELS 3 Xrotation Yrotation Zrotation
		JOINT LeftLeg
		{
			OFFSET 0.708757 -12.982077 0.567790
			CHANNELS 3 Xrotation Yrotation Zrotation
			JOINT LeftFoot
			{
				OFFSET -0.708756 -10.717838 -2.184338
				CHANNELS 3 Xrotation Yrotation Zrotation
				JOINT LeftToeBase
				{
					OFFSET 0.108149 -7.191104 7.560241
					CHANNELS 3 Xrotation Yrotation Zrotation
					JOINT LeftToe_End
					{
						OFFSET 0.070230 0.081724 4.490308
						CHANNELS 3 Xrotation Yrotation Zrotation
						End Site
						{
							OFFSET 0.000000 0.000000 0.000000
						}
					}
				}
			}
		}
	}
	JOINT RightUpLeg
	{
		OFFSET -10.205400 -3.823500 0.005500
		CHANNELS 3 Xrotation Yrotation Zrotation
		JOINT RightLeg
		{
			OFFSET -0.708756 -12.982134 0.610632
			CHANNELS 3 Xrotation Yrotation Zrotation
			JOINT RightFoot
			{
				OFFSET 0.708754 -10.717769 -1.945823
				CHANNELS 3 Xrotation Yrotation Zrotation
				JOINT RightToeBase
				{
					OFFSET -0.108140 -7.191069 7.372968
					CHANNELS 3 Xrotation Yrotation Zrotation
					JOINT RightToe_End
					{
						OFFSET -0.070227 0.081735 4.479403
						CHANNELS 3 Xrotation Yrotation Zrotation
						End Site
						{
							OFFSET 0.000000 0.000000 0.000000
						}
					}
				}
			}
		}
	}
}
MOTION
Frames: 5
Frame Time: 0.016667
0.774354 79.230980 -8.652744 5.215669 -8.022398 0.233053 8.445705 -0.069140 -0.697491 16.887412 -1.177191 -1.114029 0.000000 0.000000 0.000000 16.887431 -1.177192 -1.114027 -26.807224 6.493744 -1.451446 4.682592 -9.389105 9.652372 0.000001 0.000000 0.000000 -0.612884 -14.977182 27.292826 0.000000 0.000000 0.000000 -67.334778 -8.203779 -15.014250 16.808269 -68.480317 48.053000 33.848874 9.957015 32.839621 -11.360205 -10.015433 28.397678 19.621090 23.755278 -10.341691 -0.000004 -0.000003 0.000005 -0.000002 0.000003 -0.000003 -7.847222 -3.444995 -67.091254 -4.893171 2.726499 -36.316430 -0.000001 0.000000 -0.000013 0.000000 0.000000 0.000001 -10.129418 -3.872119 -67.774253 -1.765734 1.717446 -28.158377 -0.000001 0.000003 0.000006 0.000001 -0.000000 0.000001 -15.176969 7.293285 -70.201722 7.766214 -0.421209 -31.520080 -0.000001 0.000003 0.000006 -0.000000 -0.000000 -0.000000 6.218770 17.756048 -13.894183 0.000000 0.000000 0.000000 -82.947976 43.284504 24.548769 -18.192467 53.742449 -21.031676 34.793605 6.403816 -40.032353 15.333539 1.500908 -10.491457 -10.396759 -3.067648 -10.223936 -0.000001 0.000007 0.000010 0.000001 0.000002 0.000001 0.920242 3.497202 64.452179 1.730970 9.565834 38.865446 0.000003 -0.000004 0.000007 -0.000000 -0.000001 0.000000 -6.652435 -3.924326 64.485728 9.406017 5.988747 38.253622 0.000001 0.000001 -0.000002 0.000000 0.000000 0.000000 -5.546324 1.390175 64.784802 0.232714 -1.792512 39.151758 -0.000000 0.000003 0.000011 0.000000 -0.000002 -0.000001 -76.845229 16.548244 23.453828 105.814732 -7.959162 3.744244 -28.168236 16.715305 -25.737621 17.823317 -1.543961 16.681492 0.000003 -0.000002 0.000002 -100.138332 11.096177 -15.585655 119.218561 5.398720 -0.553944 -11.177210 -16.121097 35.520829 2.511455 3.761255 3.542928 0.000002 0.000006 -0.000002 
0.760945 79.444443 -8.678727 3.848132 -8.095110 0.402082 9.097970 -0.064303 -0.801285 18.191674 -0.858377 -1.119250 0.000000 0.000000 0.000000 18.191661 -0.858375 -1.119251 -27.539480 7.278513 -1.689584 7.619246 -10.946533 10.643138 0.000001 -0.000001 0.000000 0.325161 -15.904568 27.503529 0.000000 0.000000 0.000000 -69.510596 -10.660062 -14.371495 10.803159 -66.204238 45.525523 35.794679 7.408732 31.709795 -11.360195 -10.015426 28.397679 19.621103 23.755261 -10.341713 -0.000003 -0.000003 0.000005 -0.000002 0.000003 -0.000002 -7.847221 -3.444980 -67.091254 -4.893196 2.726524 -36.316430 -0.000001 0.000000 -0.000014 0.000000 -0.000000 -0.000000 -10.129398 -3.872133 -67.774260 -1.765763 1.717304 -28.158355 -0.000001 0.000002 0.000007 0.000001 -0.000000 0.000001 -15.176942 7.293268 -70.201743 7.766219 -0.421203 -31.520063 -0.000000 0.000003 0.000004 0.000000 -0.000001 -0.000001 6.708644 18.898918 -14.296318 0.000000 0.000000 0.000000 -85.364094 45.042424 22.649406 -20.331836 51.306202 -20.083140 36.853044 8.003271 -39.095084 15.333560 1.500915 -10.491464 -10.396763 -3.067646 -10.223940 0.000001 0.000003 0.000007 -0.000000 -0.000000 0.000001 0.920261 3.497232 64.452144 1.731006 9.565886 38.865474 0.000004 -0.000005 0.000007 -0.000000 0.000000 0.000001 -6.652432 -3.924327 64.485701 9.406013 5.988757 38.253649 0.000000 -0.000001 -0.000003 -0.000001 0.000001 0.000001 -5.546338 1.390190 64.784761 0.232792 -1.792453 39.151771 0.000000 0.000004 0.000013 0.000001 -0.000000 -0.000000 -82.079162 14.506080 23.888428 105.907233 -8.861285 2.405428 -26.439579 16.099644 -25.635037 17.111391 -0.820246 16.118437 0.000001 -0.000000 -0.000001 -103.311727 8.517718 -15.250260 114.078906 4.988895 -1.412381 -8.608867 -14.324157 34.397400 4.570366 3.739881 1.887822 -0.000000 0.000002 -0.000002 
0.748988 79.553574 -8.669202 2.544207 -7.992765 0.570869 9.692621 -0.104514 -0.838822 19.380870 -0.593884 -1.137936 0.000000 0.000000 0.000000 19.380867 -0.593886 -1.137935 -27.906170 8.033925 -1.876916 10.220141 -12.179002 11.188143 0.000000 -0.000000 0.000001 1.416559 -16.917207 27.896840 0.000000 0.000000 0.000000 -71.463907 -13.211103 -13.429042 5.023466 -63.827271 43.312419 37.747437 4.815412 30.664005 -11.360213 -10.015424 28.397679 19.621086 23.755258 -10.341703 -0.000004 -0.000001 0.000005 -0.000002 -0.000002 -0.000004 -7.847227 -3.444988 -67.091254 -4.893220 2.726558 -36.316423 -0.000000 0.000001 -0.000013 0.000000 0.000000 -0.000000 -10.129379 -3.872152 -67.774246 -1.765781 1.717156 -28.158358 -0.000001 0.000003 0.000006 0.000000 -0.000001 0.000000 -15.176940 7.293225 -70.201743 7.766209 -0.421217 -31.520080 -0.000000 0.000002 0.000002 0.000000 -0.000001 0.000001 7.401571 20.145754 -15.002647 0.000000 0.000000 0.000000 -85.334799 46.412238 18.300095 -22.943311 49.160263 -18.542919 37.921634 8.917819 -38.636748 15.333553 1.500891 -10.491464 -10.396759 -3.067646 -10.223937 0.000002 -0.000003 0.000008 0.000001 -0.000001 0.000002 0.920254 3.497245 64.452165 1.731067 9.565925 38.865470 0.000003 -0.000004 0.000008 0.000000 -0.000000 0.000001 -6.652428 -3.924318 64.485701 9.406018 5.988753 38.253642 0.000000 0.000001 -0.000002 -0.000001 0.000001 0.000001 -5.546328 1.390184 64.784768 0.232880 -1.792375 39.151771 0.000001 0.000003 0.000013 0.000000 -0.000001 -0.000000 -86.902430 12.925178 23.742878 103.592352 -9.103799 1.630933 -22.695453 14.899798 -25.531128 15.821534 -0.277193 14.833890 0.000002 0.000003 -0.000001 -104.552342 5.486230 -15.141592 107.080393 5.062343 -2.000658 -6.829831 -12.511044 32.005208 6.672652 3.651636 0.751902 0.000001 -0.000002 0.000004 
0.708558 79.523811 -8.602382 1.363716 -7.826040 0.730910 10.217539 -0.141652 -0.820391 20.431054 -0.404107 -1.150168 0.000000 0.000000 0.000000 20.431024 -0.404106 -1.150168 -27.891901 8.715288 -1.992549 12.324977 -12.999074 11.298009 -0.000000 0.000001 0.000000 2.554307 -17.796324 28.564100 0.000000 0.000000 0.000000 -72.885099 -15.245570 -11.944072 -0.383348 -61.659779 41.125064 39.226480 2.594659 29.927522 -11.360207 -10.015449 28.397683 19.621095 23.755265 -10.341701 -0.000005 -0.000004 0.000007 -0.000001 -0.000001 -0.000001 -7.847229 -3.444992 -67.091220 -4.893239 2.726603 -36.316416 -0.000001 0.000001 -0.000011 0.000000 -0.000000 0.000001 -10.129380 -3.872187 -67.774219 -1.765796 1.717027 -28.158374 -0.000001 0.000002 0.000007 0.000000 0.000000 0.000001 -15.176925 7.293182 -70.201702 7.766215 -0.421217 -31.520077 -0.000000 0.000002 0.000004 -0.000000 0.000000 -0.000001 8.191209 21.269078 -15.938345 0.000000 0.000000 0.000000 -83.291336 47.315862 12.192964 -25.736546 47.219632 -16.682271 38.042139 9.218869 -38.545213 15.333556 1.500908 -10.491462 -10.396761 -3.067646 -10.223938 0.000006 0.000000 0.000008 0.000001 0.000000 -0.000000 0.920269 3.497251 64.452165 1.731137 9.565964 38.865429 0.000003 -0.000005 0.000006 -0.000000 0.000002 0.000001 -6.652423 -3.924328 64.485708 9.406017 5.988753 38.253656 0.000001 -0.000000 -0.000002 0.000001 0.000002 0.000002 -5.546337 1.390184 64.784788 0.232967 -1.792316 39.151754 0.000001 0.000003 0.000010 -0.000000 0.000001 0.000001 -90.283817 11.938597 23.200961 99.097500 -9.380093 1.230485 -18.284005 13.396641 -24.851736 13.772782 -0.049359 12.878690 0.000000 -0.000000 -0.000003 -103.877731 2.128742 -15.132313 98.822906 5.760135 -2.219319 -5.992795 -10.847840 28.384069 8.520389 3.608287 0.260871 -0.000000 0.000003 0.000000 
0.643506 79.353264 -8.472653 0.335384 -7.673274 0.880184 10.659991 -0.156666 -0.769450 21.316525 -0.290757 -1.141270 0.000000 0.000000 0.000000 21.316532 -0.290757 -1.141269 -27.499866 9.287818 -2.027715 13.878547 -13.401407 11.047121 -0.000001 0.000000 0.000001 3.604426 -18.354395 29.488037 0.000000 0.000000 0.000000 -73.580774 -16.357442 -9.940293 -5.383965 -59.850120 38.716845 39.945542 1.000944 29.581392 -11.360204 -10.015438 28.397693 19.621095 23.755277 -10.341698 -0.000002 -0.000002 0.000007 -0.000001 -0.000000 -0.000004 -7.847213 -3.444991 -67.091234 -4.893276 2.726605 -36.316430 -0.000001 0.000001 -0.000011 0.000000 0.000000 0.000001 -10.129366 -3.872212 -67.774260 -1.765828 1.716877 -28.158331 -0.000001 0.000002 0.000006 0.000000 -0.000000 0.000001 -15.176918 7.293146 -70.201722 7.766209 -0.421217 -31.520059 0.000000 0.000001 0.000005 -0.000001 0.000000 0.000001 8.955282 22.064436 -17.026272 0.000000 0.000000 0.000000 -80.139129 47.684235 5.475459 -28.400632 45.367250 -14.783318 37.424874 9.103735 -38.710900 15.333554 1.500901 -10.491459 -10.396758 -3.067648 -10.223940 0.000001 0.000002 0.000009 0.000001 -0.000005 0.000003 0.920272 3.497265 64.452165 1.731172 9.566043 38.865433 0.000003 -0.000005 0.000009 0.000000 -0.000001 0.000001 -6.652426 -3.924336 64.485708 9.406018 5.988754 38.253642 0.000001 -0.000000 -0.000002 -0.000000 0.000001 0.000000 -5.546319 1.390171 64.784781 0.233048 -1.792235 39.151768 0.000001 0.000003 0.000011 0.000000 0.000001 0.000001 -92.047816 11.525167 22.487527 93.098156 -9.961449 1.156060 -13.331725 11.540096 -23.373052 13.718430 0.384911 10.233415 0.000001 -0.000001 0.000002 -101.680466 -1.366844 -15.121291 89.933825 6.931550 -2.053799 -5.709947 -9.293854 23.945964 9.718648 3.798729 0.434108 0.000001 0.000001 0.000002 
